<svg id="Layer_1" height="512" viewBox="0 0 512 512" width="512" xmlns="http://www.w3.org/2000/svg" data-name="Layer 1">
	<path d="m321.163 447.993a141.64 141.64 0 0 1 -40 5.662 5 5 0 0 0 0 10 151.658 151.658 0 0 0 42.826-6.068 5 5 0 0 0 -2.822-9.594z" />
	<path d="m404 359.864c0-36.961-26.357-70.874-67.7-87.373a48.338 48.338 0 0 0 .639-7.336 50.144 50.144 0 0 0 -7.266-25.78 143.089 143.089 0 0 1 76.238 4.338 5 5 0 1 0 3.273-9.454 153.178 153.178 0 0 0 -85.884-3.659c-9.82-11.162-24.336-19.624-41.619-23.363-.631-.137-1.266-.262-1.9-.385 9.571-12.963 23.2-23.809 39.854-31.617 20.023-9.39 42.994-13.661 66.425-12.343a5 5 0 0 0 .56-9.985c-25.074-1.406-49.711 3.183-71.23 13.273-20.031 9.393-36.128 22.914-46.767 39.214-2.2-.154-4.406-.238-6.622-.238a5 5 0 0 0 0 10 83.248 83.248 0 0 1 17.568 1.855c27.931 6.041 47.431 25.839 47.431 48.144 0 27.57-29.159 50-65 50a82.489 82.489 0 0 1 -20.83-2.634 5 5 0 1 0 -2.527 9.676c2.446.638 4.931 1.164 7.442 1.6-15.521 28.637-50.014 49.227-89.97 53.157a5 5 0 0 0 .484 9.977q.246 0 .5-.024c44.821-4.41 83.465-28.551 99.611-61.9 1.757.1 3.523.155 5.3.155a89.284 89.284 0 0 0 37.131-7.9c15.182 31.873 5.4 67.521-25.7 91.951l-5.45 4.282c-13.824 10.856-31.063 18.754-49.854 22.839a5 5 0 1 0 2.125 9.772c20.26-4.405 38.9-12.962 53.905-24.747l5.451-4.281c17.987-14.127 29.9-32.017 34.459-51.737a79.036 79.036 0 0 0 -6.11-52.809c12.2-7.593 21.285-18.123 25.807-30.258 36.834 15.127 60.24 45.128 60.24 77.6v6.055c0 22.144-10.584 43.3-30.014 59.58a4.994 4.994 0 0 0 -.563 7.044 5.047 5.047 0 0 0 3.864 1.789 4.721 4.721 0 0 0 3.108-1.168c21.722-18.22 33.591-42.101 33.591-67.255z" />
	<path d="m129.908 134.859a89.205 89.205 0 0 1 12.959-15.536 5 5 0 1 0 -6.924-7.215 99.258 99.258 0 0 0 -14.41 17.286 5 5 0 1 0 8.375 5.465z" />
	<path d="m234.6 76.7a151.062 151.062 0 0 0 -49.438 6.9 134.115 134.115 0 0 0 -29.376 13.3 5 5 0 1 0 5.214 8.534 124.191 124.191 0 0 1 27.187-12.3 140.95 140.95 0 0 1 46.169-6.434h.123a5 5 0 0 0 .12-10z" />
	<path d="m21 289.915a5 5 0 0 0 -10 0 80.849 80.849 0 0 0 12.057 42.285 5 5 0 0 0 8.56-5.17 70.982 70.982 0 0 1 -10.617-37.115z" />
	<path d="m71.048 362.737a109.288 109.288 0 0 1 -23.615-16.5 5 5 0 1 0 -6.789 7.342 119.266 119.266 0 0 0 25.771 18.021 5 5 0 0 0 4.633-8.862z" />
	<path d="m105.224 374.763a5 5 0 1 0 -2 9.8 154.239 154.239 0 0 0 30.852 3.091 5 5 0 0 0 0-10 144.257 144.257 0 0 1 -28.852-2.891z" />
	<path d="m458.261 182.3a5 5 0 0 0 -1.4-6.932 129.9 129.9 0 0 0 -24.561-12.691 5 5 0 1 0 -3.639 9.314 119.974 119.974 0 0 1 22.669 11.709 5 5 0 0 0 6.931-1.4z" />
	<path d="m481.705 205.892a5 5 0 0 0 -1.643 6.877 70.592 70.592 0 0 1 10.885 40.286 5 5 0 0 0 4.8 5.192h.2a5 5 0 0 0 4.992-4.8 81.5 81.5 0 0 0 -12.357-45.912 5 5 0 0 0 -6.877-1.643z" />
	<path d="m125.432 425.131a113.108 113.108 0 0 1 -18.259-11.646 5 5 0 1 0 -6.173 7.864 123.114 123.114 0 0 0 19.874 12.682 5 5 0 1 0 4.561-8.9z" />
	<path d="m187.242 439.578c-4.381-.009-8.806-.219-13.157-.624a142.973 142.973 0 0 1 -16.085-2.422 5 5 0 0 0 -2.055 9.787 152.558 152.558 0 0 0 17.217 2.3c4.649.432 9.379.378 14.059.378h.011a4.719 4.719 0 1 0 .012-9.422z" />
	<path d="m211.247 226.912c.018.027.027.056.046.082.007.011.016.019.023.029.059.084.126.159.19.238s.146.184.225.269.149.148.226.221.162.153.247.223.162.127.246.188.179.128.273.186.174.106.265.156.191.1.288.144.19.088.288.126.19.068.287.1.211.069.318.1c.086.022.173.036.261.053.12.024.239.05.361.064.049.006.1.006.146.01.151.014.3.031.455.031a4.908 4.908 0 0 0 .713-.058c.031 0 .062-.012.094-.017a4.941 4.941 0 0 0 .591-.135q.077-.023.153-.048a4.842 4.842 0 0 0 .55-.219c.041-.019.082-.035.122-.055s.076-.031.113-.051c.075-.04.135-.095.208-.139.107-.064.218-.117.322-.19a67.321 67.321 0 0 1 10.446-5.984 5 5 0 0 0 -4.189-9.08 79.046 79.046 0 0 0 -7.082 3.728c-9.822-22.233-7.754-46.659 5.946-67.8a5 5 0 0 0 -8.391-5.439c-16.746 25.837-18.211 56.025-4.019 82.823a4.83 4.83 0 0 0 .278.444z" />
	<path d="m291.931 104.426a5 5 0 1 0 -2.268-9.739 141.411 141.411 0 0 0 -25.622 8.579 128.255 128.255 0 0 0 -19.755 10.992 5 5 0 1 0 5.627 8.266 118.283 118.283 0 0 1 18.211-10.13 131.478 131.478 0 0 1 23.807-7.968z" />
	<path d="m413.652 121.106a124.4 124.4 0 0 0 -32.624-19.469 5 5 0 1 0 -3.8 9.251 114.426 114.426 0 0 1 30.011 17.893 5 5 0 1 0 6.41-7.675z" />
	<path d="m35.123 202.285a4.993 4.993 0 0 0 6.113-3.554 74.273 74.273 0 0 1 7.279-17.695 82.64 82.64 0 0 1 6.548-9.788 95.8 95.8 0 0 1 16.53-16.478 5 5 0 1 0 -6.178-7.864 105.783 105.783 0 0 0 -18.25 18.209 92.942 92.942 0 0 0 -7.344 10.977 84.373 84.373 0 0 0 -8.253 20.08 5 5 0 0 0 3.555 6.113z" />
	<path d="m43.773 253.872a5 5 0 0 0 2.327-6.672 73.817 73.817 0 0 1 -4.309-11.116 5 5 0 1 0 -9.588 2.84 83.747 83.747 0 0 0 4.897 12.621 5 5 0 0 0 6.676 2.327z" />
	<path d="m101.581 307.831a152.544 152.544 0 0 0 111.732 0c.021-.009.039-.022.059-.031a4.963 4.963 0 0 0 .78-.41c.043-.028.084-.058.126-.087a4.948 4.948 0 0 0 .665-.543c.031-.03.057-.064.088-.095.093-.1.188-.193.275-.3.047-.057.075-.121.119-.18a4.974 4.974 0 0 0 .3-.448c.08-.135.156-.27.222-.41a5.813 5.813 0 0 0 .329-.913c.039-.154.066-.31.09-.469a4.708 4.708 0 0 0 .054-.474c.009-.162.006-.324 0-.488s-.018-.32-.04-.479-.054-.308-.091-.463a5.017 5.017 0 0 0 -.148-.509c-.025-.07-.034-.142-.062-.211s-.075-.134-.108-.2a4.739 4.739 0 0 0 -.248-.473c-.083-.14-.171-.274-.266-.4s-.192-.246-.3-.364a5 5 0 0 0 -.384-.386c-.057-.051-.1-.112-.161-.161a54.435 54.435 0 0 1 -8.177-8.273 40.3 40.3 0 0 1 .33-52.212 5 5 0 0 0 -7.776-6.289 53.181 53.181 0 0 0 -11.026 23.02c-20.99-6.709-39.229-18.371-51.775-33.232a79.47 79.47 0 0 1 -14.573-25.19 68.689 68.689 0 0 1 -3.56-28.914 5 5 0 0 0 -9.959-.906 78.59 78.59 0 0 0 4.072 33.1 89.387 89.387 0 0 0 16.379 28.365c14.168 16.782 34.825 29.8 58.467 36.96a51.573 51.573 0 0 0 11.579 31.508c1.095 1.384 2.284 2.723 3.52 4.033-31 10.365-66.6 9.459-96.785-2.735a5 5 0 0 0 -3.746 9.273z" />
	<path d="m461.229 268.249a5 5 0 1 0 -7.533 6.576 84.463 84.463 0 0 1 9.895 13.9 71.334 71.334 0 0 1 9.376 31.319 5 5 0 0 0 4.987 4.72c.095 0 .19 0 .285-.008a5 5 0 0 0 4.712-5.272 81.24 81.24 0 0 0 -10.651-35.679 94.514 94.514 0 0 0 -11.071-15.556z" />
	<path d="m475.654 343.238a5 5 0 0 0 -6.346 3.118c-5.337 15.65-16.194 29.855-31.395 41.082a5 5 0 0 0 5.941 8.044c16.846-12.442 28.921-28.313 34.918-45.9a5 5 0 0 0 -3.118-6.344z" />
	<circle cx="242" cy="212.155" r="7" />
	<circle cx="223" cy="313.155" r="7" />
	<circle cx="231" cy="130.155" r="7" />
	<circle cx="33" cy="217.155" r="7" />
	<circle cx="87" cy="376.155" r="7" />
	<circle cx="116" cy="149.155" r="7" />
	<circle cx="139" cy="436.155" r="7" />
	<circle cx="262" cy="460.155" r="7" />
	<path d="m357.726 438.757a10.865 10.865 0 0 1 -6.838-6.844 5 5 0 0 0 -9.488 0 10.87 10.87 0 0 1 -6.839 6.845 5 5 0 0 0 0 9.486 10.871 10.871 0 0 1 6.838 6.845 5 5 0 0 0 9.488 0 10.867 10.867 0 0 1 6.838-6.844 5 5 0 0 0 0-9.486z" />
	<path d="m454.16 439.757a30.625 30.625 0 0 1 -19.272-19.288 5 5 0 0 0 -9.489 0 30.629 30.629 0 0 1 -19.272 19.288 5 5 0 0 0 0 9.486 30.627 30.627 0 0 1 19.273 19.288 5 5 0 0 0 9.489 0 30.625 30.625 0 0 1 19.272-19.288 5 5 0 0 0 0-9.486z" />
	<path d="m73.888 43.469a5 5 0 0 0 -9.489 0 30.629 30.629 0 0 1 -19.272 19.288 5 5 0 0 0 0 9.486 30.627 30.627 0 0 1 19.273 19.288 5 5 0 0 0 9.489 0 30.625 30.625 0 0 1 19.271-19.288 5 5 0 0 0 0-9.486 30.625 30.625 0 0 1 -19.272-19.288z" />
	<path d="m101.144 136.5a5 5 0 0 0 -3.418-4.743 10.865 10.865 0 0 1 -6.838-6.844 5 5 0 0 0 -9.488 0 10.87 10.87 0 0 1 -6.839 6.845 5 5 0 0 0 0 9.486 10.871 10.871 0 0 1 6.838 6.845 5 5 0 0 0 9.488 0 10.867 10.867 0 0 1 6.838-6.844 5 5 0 0 0 3.419-4.745zm-15 .594c-.2-.2-.392-.4-.594-.594.2-.194.4-.392.594-.594.193.2.391.4.592.594-.201.194-.399.392-.592.594z" />
	<path d="m252.705 231.99c-10.471 1.913-19.535 6.954-25.525 14.192a5 5 0 0 0 7.7 6.375c4.427-5.35 11.577-9.261 19.619-10.731a5 5 0 1 0 -1.8-9.836z" />
	<path d="m262 299.155a5 5 0 0 0 0-10c-10.324 0-20.076-3.827-26.087-10.236a20.034 20.034 0 0 1 -5.822-13.764 5 5 0 0 0 -10 0 29.852 29.852 0 0 0 8.527 20.605c7.982 8.512 20.152 13.395 33.382 13.395z" />
	<path d="m282.474 283.519a5 5 0 1 0 5.351 8.447c10.222-6.475 16.084-16.247 16.084-26.811 0-13.873-10.192-26.224-25.966-31.466a5 5 0 1 0 -3.154 9.489c11.615 3.86 19.12 12.486 19.12 21.977 0 7.066-4.168 13.76-11.435 18.364z" />
	<circle cx="434" cy="251.155" r="20" />
	<circle cx="67" cy="280.155" r="27" />
	<path d="m304.025 105.438a31.893 31.893 0 0 0 38.3 17.562c5.777 4.462 11.763 7.81 16.736 7.809a8.687 8.687 0 0 0 5.252-1.635c6.08-4.442 2.711-15.132-1.738-24.119.194-.446.379-.9.553-1.354a32.015 32.015 0 0 0 -35.62-42.867c-11.856-10.155-20.528-13.144-25.783-8.859-6.066 4.945-2.608 15.724 2.916 25.951a32.174 32.174 0 0 0 -1.336 3.033 31.793 31.793 0 0 0 .72 24.479zm21.373 7.453a21.979 21.979 0 0 1 -13.93-23.835c4.06 5.986 7.763 10.607 8.817 11.9a175.609 175.609 0 0 0 12.194 13.344 21.982 21.982 0 0 1 -7.079-1.409zm32.159 7.657a23.781 23.781 0 0 1 -5.141-2.618 31.72 31.72 0 0 0 3.492-3.028 32.163 32.163 0 0 1 1.649 5.646zm-33.357-48.289a22 22 0 0 1 19.836 39.216 144.108 144.108 0 0 1 -16-16.837 149.641 149.641 0 0 1 -11.718-16.378 21.9 21.9 0 0 1 7.882-6.001zm-7.546-7.308a31.808 31.808 0 0 0 -5.351 4.041c-1.828-3.979-2.72-6.971-2.845-8.712 1.49.45 4.209 1.729 8.199 4.671z" />
</svg>
